<svg width="22" height="22" viewBox="0 0 22 22" fill="none" xmlns="http://www.w3.org/2000/svg">
<path d="M7 8.6272L8.04106 14.2669C8.09499 14.5966 8.23919 14.9049 8.45767 15.1576C8.67614 15.4103 8.96035 15.5975 9.27876 15.6985L9.42704 15.7455C10.495 16.0846 11.6418 16.0846 12.7098 15.7455L12.8581 15.6985C13.1764 15.5976 13.4606 15.4104 13.6791 15.1578C13.8975 14.9051 14.0418 14.5969 14.0958 14.2674L15.1368 8.6272" stroke="#3369F3" stroke-width="1.5" stroke-linecap="round" stroke-linejoin="round"/>
<path d="M11.0684 10.2547C13.3153 10.2547 15.1368 9.52614 15.1368 8.62737C15.1368 7.7286 13.3153 7 11.0684 7C8.82149 7 7 7.7286 7 8.62737C7 9.52614 8.82149 10.2547 11.0684 10.2547Z" stroke="#3369F3" stroke-width="1.5" stroke-linecap="round" stroke-linejoin="round"/>
<circle cx="11" cy="11" r="10.25" stroke="#3369F3" stroke-width="1.5"/>
</svg>
